header simu:
4d54 6864 0000 0006 0001 0001 01e0 4d54
726b 0000 0601 00ff 2001 0000 ff03 0e20
4772 616e 6420 5069 616e 6f20 2000 ff04
0c47 4d20 4465 7669 6365 2020 3100 ff58
0404 0218 0800 ff59 0200 0000

header simu2:
4d54 6864 0000 0006 0001 0001 01e0 4d54
726b 0000 0601 00ff 2001 0000 ff03 0e20
4772 616e 6420 5069 616e 6f20 2000 ff04
0c47 4d20 4465 7669 6365 2020 3100 ff58
0404 0218 0800 ff59 0200 0000

header hanon:
4d54 6864 0000 0006 0001 0003 00f0 4d54
726b 0000 0013 00ff 5804 0202 1808 00ff
5103 087a 2400 ff2f 004d 5472 6b00 0007
0d00 9130 4b36 8130 

header prelud:
4d54 6864 0000 0006 0001 0002 00f0 4d54
726b 0000 0066 00ff 5804 0402 1808 00ff
5103 0ae6 2e00 ff54 0540 0000 0000 819d
40ff 5804 0402 0c08 8170 ff51 030c 3500
78ff 5103 249f 0078 ff51 030a e62e 8360
ff58 0404 0218 0881 8a60 ff51 030b 2a3b
8170 ff51 030b bccf 8170 ff51 030c 5f3b
8740 ff51 030a e62e 00ff 2f00 4d54 726b
0000 148f 00ff 0305 4365 6c6c 6f00 902b

ori euterpea pat header:
4d54 6864 0000 0006 0000 0001 0060 4d54
726b 0000 2eee 00c0 0000 ff51 0307 a120