<?xml version="1.0" encoding="UTF-8" standalone="no"?>
<svg
   xmlns:dc="http://purl.org/dc/elements/1.1/"
   xmlns:cc="http://creativecommons.org/ns#"
   xmlns:rdf="http://www.w3.org/1999/02/22-rdf-syntax-ns#"
   xmlns:svg="http://www.w3.org/2000/svg"
   xmlns="http://www.w3.org/2000/svg"
   xmlns:sodipodi="http://sodipodi.sourceforge.net/DTD/sodipodi-0.dtd"
   xmlns:inkscape="http://www.inkscape.org/namespaces/inkscape"
   width="285.95963"
   height="45.549576"
   viewBox="0 0 285.95962 45.549575"
   version="1.2"
   id="svg5712"
   sodipodi:docname="bwv861-start-section-patterns-1.svg"
   inkscape:version="0.92.3 (2405546, 2018-03-11)">
  <metadata
     id="metadata5718">
    <rdf:RDF>
      <cc:Work
         rdf:about="">
        <dc:format>image/svg+xml</dc:format>
        <dc:type
           rdf:resource="http://purl.org/dc/dcmitype/StillImage" />
        <dc:title>fugue16 (1)</dc:title>
      </cc:Work>
    </rdf:RDF>
  </metadata>
  <defs
     id="defs5716" />
  <sodipodi:namedview
     pagecolor="#ffffff"
     bordercolor="#666666"
     borderopacity="1"
     objecttolerance="10"
     gridtolerance="10"
     guidetolerance="10"
     inkscape:pageopacity="0"
     inkscape:pageshadow="2"
     inkscape:window-width="1920"
     inkscape:window-height="1033"
     id="namedview5714"
     showgrid="false"
     inkscape:snap-global="false"
     inkscape:zoom="3.1714775"
     inkscape:cx="72.279535"
     inkscape:cy="28.30345"
     inkscape:window-x="0"
     inkscape:window-y="28"
     inkscape:window-maximized="0"
     inkscape:current-layer="layer2"
     fit-margin-top="3"
     fit-margin-left="3"
     fit-margin-right="3"
     fit-margin-bottom="3" />
  <title
     id="title2">fugue16 (1)</title>
  <desc
     id="desc4">Generated by MuseScore 2.1.0</desc>
  <g
     inkscape:groupmode="layer"
     id="layer1"
     inkscape:label="Pat"
     transform="translate(-43.7028,-45.914025)">
    <rect
       style="fill:#616cce;fill-opacity:0.33695655;stroke:none;stroke-width:1.60826612;stroke-miterlimit:4;stroke-dasharray:none;stroke-opacity:1"
       id="rect6732"
       width="50.134365"
       height="15.923179"
       x="77.724022"
       y="67.645195" />
    <rect
       y="54.244503"
       x="177.99275"
       height="15.607868"
       width="61.643196"
       id="rect6734"
       style="fill:#616cce;fill-opacity:0.33695655;stroke:none;stroke-width:1.76558912;stroke-miterlimit:4;stroke-dasharray:none;stroke-opacity:1" />
    <rect
       style="fill:#616cce;fill-opacity:0.33695655;stroke:none;stroke-width:1.76558912;stroke-miterlimit:4;stroke-dasharray:none;stroke-opacity:1"
       id="rect6736"
       width="61.643196"
       height="15.607868"
       x="260.6041"
       y="69.69471" />
    <rect
       style="fill:#a1903a;fill-opacity:0.33695655;stroke:none;stroke-width:1.27616405;stroke-miterlimit:4;stroke-dasharray:none;stroke-opacity:1"
       id="rect6738"
       width="29.796841"
       height="16.86911"
       x="141.25908"
       y="70.167679" />
    <rect
       y="71.586578"
       x="219.45607"
       height="16.86911"
       width="32.319324"
       id="rect6740"
       style="fill:#a1903a;fill-opacity:0.33695655;stroke:none;stroke-width:1.32908428;stroke-miterlimit:4;stroke-dasharray:none;stroke-opacity:1" />
    <rect
       style="fill:#a1903a;fill-opacity:0.33695655;stroke:none;stroke-width:1.45593882;stroke-miterlimit:4;stroke-dasharray:none;stroke-opacity:1"
       id="rect6742"
       width="38.783188"
       height="16.86911"
       x="258.39691"
       y="51.879673" />
  </g>
  <g
     inkscape:groupmode="layer"
     id="layer2"
     inkscape:label="Clef"
     transform="translate(-43.7028,-45.914025)">
    <g
       id="g6674">
      <path
         inkscape:connector-curvature="0"
         style="fill:none;stroke:#000000;stroke-width:0.16135983;stroke-linejoin:bevel"
         d="M 46.9228,76.1669 H 326.66243"
         id="polyline16" />
      <path
         inkscape:connector-curvature="0"
         style="fill:none;stroke:#000000;stroke-width:0.16135983;stroke-linejoin:bevel"
         d="M 46.9228,78.8995 H 326.66243"
         id="polyline18" />
      <path
         inkscape:connector-curvature="0"
         style="fill:none;stroke:#000000;stroke-width:0.16135983;stroke-linejoin:bevel"
         d="M 46.9228,81.6321 H 326.66243"
         id="polyline20" />
      <path
         inkscape:connector-curvature="0"
         style="fill:none;stroke:#000000;stroke-width:0.16135983;stroke-linejoin:bevel"
         d="M 46.9228,84.3647 H 326.66243"
         id="polyline22" />
      <path
         inkscape:connector-curvature="0"
         style="fill:none;stroke:#000000;stroke-width:0.16135983;stroke-linejoin:bevel"
         d="M 46.9228,87.0973 H 326.66243"
         id="polyline24" />
      <polyline
         style="stroke:#000000;stroke-width:0.44;stroke-linejoin:bevel"
         id="polyline618"
         points="295.721,76.1669 295.721,87.0973"
         class="BarLine" />
      <polyline
         style="stroke:#000000;stroke-width:0.44;stroke-linejoin:bevel"
         id="polyline626"
         points="205.284,76.1669 205.284,87.0973"
         class="BarLine" />
      <polyline
         style="stroke:#000000;stroke-width:0.44;stroke-linejoin:bevel"
         id="polyline634"
         points="131.276,76.1669 131.276,87.0973"
         class="BarLine" />
      <path
         inkscape:connector-curvature="0"
         id="path774"
         d="m 4.3125,6.23438 c 0,0.25 -0.1224,0.375 -0.36719,0.375 -0.24479,0 -0.36718,-0.125 -0.36718,-0.375 V 3.34375 l -1.65625,0.625 V 7.125 c 0,0.25 -0.125,0.375 -0.375,0.375 -0.25,0 -0.375,-0.125 -0.375,-0.375 V 4.21875 L 0.546875,4.45313 C 0.536458,4.46354 0.484375,4.46875 0.390625,4.46875 0.286458,4.46875 0.195313,4.42969 0.117188,4.35156 0.0390625,4.27344 0,4.18229 0,4.07813 V 2.875 C 0,2.67708 0.0833333,2.55208 0.25,2.5 L 1.17188,2.1875 v -3.20313 l -0.625005,0.218755 c -0.010417,0.010417 -0.0625,0.015625 -0.15625,0.015625 -0.104167,0 -0.195312,-0.039063 -0.273437,-0.117188 C 0.0390625,-0.976563 0,-1.06771 0,-1.17188 v -1.21875 c 0,-0.17708 0.0833333,-0.29166 0.25,-0.34375 l 0.92188,-0.35937 v -3.14063 c 0,-0.25 0.125,-0.375 0.375,-0.375 0.25,0 0.375,0.125 0.375,0.375 v 2.89063 l 1.65625,-0.625 V -7.125 c 0,-0.25 0.12239,-0.375 0.36718,-0.375 0.24479,0 0.36719,0.125 0.36719,0.375 v 2.90625 l 0.65625,-0.23438 c 0.01042,-0.01041 0.05208,-0.01562 0.125,-0.01562 0.09375,0 0.19271,0.03646 0.29688,0.10937 0.08333,0.08334 0.125,0.17709 0.125,0.28125 V -2.875 c 0,0.1875 -0.09375,0.3125 -0.28125,0.375 L 4.3125,-2.1875 V 1.01563 L 4.96875,0.796875 C 4.97917,0.786458 5.02083,0.78125 5.09375,0.78125 c 0.09375,0 0.19271,0.041667 0.29688,0.125 0.08333,0.072917 0.125,0.16146 0.125,0.26563 v 1.21875 c 0,0.16666 -0.09375,0.28125 -0.28125,0.34375 L 4.3125,3.09375 V 6.23438 M 3.57813,-1.89063 1.92188,-1.3125 V 1.89063 L 3.57813,1.3125 v -3.20313"
         transform="matrix(0.54652,0,0,0.54652,279.186,73.4343)"
         class="Accidental" />
      <path
         inkscape:connector-curvature="0"
         id="path776"
         d="m -0.15625,-7.5 c 0.1666667,-0.09375 0.335938,-0.14063 0.507813,-0.14063 0.171875,0 0.341145,0.04688 0.507812,0.14063 l -0.0625,3.65625 2.140625,-0.39063 h 0.07813 c 0.22916,0 0.34375,0.10938 0.34375,0.32813 L 3.5,7.5 C 3.33333,7.59375 3.16406,7.64063 2.99219,7.64063 2.82031,7.64063 2.65104,7.59375 2.48438,7.5 L 2.54688,3.84375 0.4375,4.23438 H 0.359375 C 0.119792,4.23438 0,4.125 0,3.90625 L -0.15625,-7.5 M 2.5625,1.89063 2.625,-2.25 0.78125,-1.89063 0.71875,2.25 2.5625,1.89063"
         transform="matrix(0.54652,0,0,0.54652,271.518,80.2658)"
         class="Accidental" />
      <path
         inkscape:connector-curvature="0"
         id="path782"
         d="m 4.3125,6.23438 c 0,0.25 -0.1224,0.375 -0.36719,0.375 -0.24479,0 -0.36718,-0.125 -0.36718,-0.375 V 3.34375 l -1.65625,0.625 V 7.125 c 0,0.25 -0.125,0.375 -0.375,0.375 -0.25,0 -0.375,-0.125 -0.375,-0.375 V 4.21875 L 0.546875,4.45313 C 0.536458,4.46354 0.484375,4.46875 0.390625,4.46875 0.286458,4.46875 0.195313,4.42969 0.117188,4.35156 0.0390625,4.27344 0,4.18229 0,4.07813 V 2.875 C 0,2.67708 0.0833333,2.55208 0.25,2.5 L 1.17188,2.1875 v -3.20313 l -0.625005,0.218755 c -0.010417,0.010417 -0.0625,0.015625 -0.15625,0.015625 -0.104167,0 -0.195312,-0.039063 -0.273437,-0.117188 C 0.0390625,-0.976563 0,-1.06771 0,-1.17188 v -1.21875 c 0,-0.17708 0.0833333,-0.29166 0.25,-0.34375 l 0.92188,-0.35937 v -3.14063 c 0,-0.25 0.125,-0.375 0.375,-0.375 0.25,0 0.375,0.125 0.375,0.375 v 2.89063 l 1.65625,-0.625 V -7.125 c 0,-0.25 0.12239,-0.375 0.36718,-0.375 0.24479,0 0.36719,0.125 0.36719,0.375 v 2.90625 l 0.65625,-0.23438 c 0.01042,-0.01041 0.05208,-0.01562 0.125,-0.01562 0.09375,0 0.19271,0.03646 0.29688,0.10937 0.08333,0.08334 0.125,0.17709 0.125,0.28125 V -2.875 c 0,0.1875 -0.09375,0.3125 -0.28125,0.375 L 4.3125,-2.1875 V 1.01563 L 4.96875,0.796875 C 4.97917,0.786458 5.02083,0.78125 5.09375,0.78125 c 0.09375,0 0.19271,0.041667 0.29688,0.125 0.08333,0.072917 0.125,0.16146 0.125,0.26563 v 1.21875 c 0,0.16666 -0.09375,0.28125 -0.28125,0.34375 L 4.3125,3.09375 V 6.23438 M 3.57813,-1.89063 1.92188,-1.3125 V 1.89063 L 3.57813,1.3125 v -3.20313"
         transform="matrix(0.54652,0,0,0.54652,102.037,78.8995)"
         class="Accidental" />
      <polyline
         style="stroke:#000000;stroke-width:0.44;stroke-linecap:square;stroke-linejoin:bevel"
         id="polyline1606"
         points="298.399,73.4343 303.636,73.4343"
         class="LedgerLine" />
      <polyline
         style="stroke:#000000;stroke-width:0.44;stroke-linecap:square;stroke-linejoin:bevel"
         id="polyline1608"
         points="282.524,73.4343 287.762,73.4343"
         class="LedgerLine" />
      <polyline
         style="stroke:#000000;stroke-width:0.44;stroke-linecap:square;stroke-linejoin:bevel"
         id="polyline1612"
         points="152.601,73.4343 157.838,73.4343"
         class="LedgerLine" />
      <polyline
         style="stroke:#000000;stroke-width:0.44;stroke-linecap:square;stroke-linejoin:bevel"
         id="polyline1614"
         points="88.3956,70.7017 93.6328,70.7017"
         class="LedgerLine" />
      <polyline
         style="stroke:#000000;stroke-width:0.44;stroke-linecap:square;stroke-linejoin:bevel"
         id="polyline1616"
         points="88.3956,73.4343 93.6328,73.4343"
         class="LedgerLine" />
      <polyline
         style="stroke:#000000;stroke-width:0.44;stroke-linecap:square;stroke-linejoin:bevel"
         id="polyline1618"
         points="80.4554,73.4343 85.6926,73.4343"
         class="LedgerLine" />
      <polyline
         style="stroke:#000000;stroke-width:0.36000001;stroke-linecap:round;stroke-linejoin:bevel"
         id="polyline3012"
         points="299.396,72.5813 299.396,81.6321"
         class="Stem" />
      <polyline
         style="stroke:#000000;stroke-width:0.36000001;stroke-linecap:round;stroke-linejoin:bevel"
         id="polyline3018"
         points="283.522,73.9476 283.522,87.7805"
         class="Stem" />
      <polyline
         style="stroke:#000000;stroke-width:0.36000001;stroke-linecap:round;stroke-linejoin:bevel"
         id="polyline3022"
         points="274.198,80.779 274.198,87.7805"
         class="Stem" />
      <polyline
         style="stroke:#000000;stroke-width:0.36000001;stroke-linecap:round;stroke-linejoin:bevel"
         id="polyline3028"
         points="262.542,78.0464 262.542,87.7805"
         class="Stem" />
      <polyline
         style="stroke:#000000;stroke-width:0.36000001;stroke-linecap:round;stroke-linejoin:bevel"
         id="polyline3032"
         points="253.218,75.3139 253.218,87.7805"
         class="Stem" />
      <polyline
         style="stroke:#000000;stroke-width:0.36000001;stroke-linecap:round;stroke-linejoin:bevel"
         id="polyline3034"
         points="247.39,76.6801 247.39,84.3647"
         class="Stem" />
      <polyline
         style="stroke:#000000;stroke-width:0.36000001;stroke-linecap:round;stroke-linejoin:bevel"
         id="polyline3036"
         points="241.563,78.0464 241.563,85.4157"
         class="Stem" />
      <polyline
         style="stroke:#000000;stroke-width:0.36000001;stroke-linecap:round;stroke-linejoin:bevel"
         id="polyline3038"
         points="232.239,79.4127 232.239,87.0973"
         class="Stem" />
      <polyline
         style="stroke:#000000;stroke-width:0.36000001;stroke-linecap:round;stroke-linejoin:bevel"
         id="polyline3042"
         points="226.411,78.0464 226.411,87.0973"
         class="Stem" />
      <polyline
         style="stroke:#000000;stroke-width:0.36000001;stroke-linecap:round;stroke-linejoin:bevel"
         id="polyline3044"
         points="220.583,76.6801 220.583,86.4142"
         class="Stem" />
      <polyline
         style="stroke:#000000;stroke-width:0.36000001;stroke-linecap:round;stroke-linejoin:bevel"
         id="polyline3050"
         points="188.717,78.0464 188.717,87.0973"
         class="Stem" />
      <polyline
         style="stroke:#000000;stroke-width:0.36000001;stroke-linecap:round;stroke-linejoin:bevel"
         id="polyline3056"
         points="172.19,75.3139 172.19,84.3647"
         class="Stem" />
      <polyline
         style="stroke:#000000;stroke-width:0.36000001;stroke-linecap:round;stroke-linejoin:bevel"
         id="polyline3058"
         points="167.026,76.6801 167.026,84.3647"
         class="Stem" />
      <polyline
         style="stroke:#000000;stroke-width:0.36000001;stroke-linecap:round;stroke-linejoin:bevel"
         id="polyline3060"
         points="161.861,75.3139 161.861,83.3137"
         class="Stem" />
      <polyline
         style="stroke:#000000;stroke-width:0.36000001;stroke-linecap:round;stroke-linejoin:bevel"
         id="polyline3062"
         points="153.598,73.9476 153.598,81.6321"
         class="Stem" />
      <polyline
         style="stroke:#000000;stroke-width:0.36000001;stroke-linecap:round;stroke-linejoin:bevel"
         id="polyline3064"
         points="148.434,75.3139 148.434,83.6816"
         class="Stem" />
      <polyline
         style="stroke:#000000;stroke-width:0.36000001;stroke-linecap:round;stroke-linejoin:bevel"
         id="polyline3066"
         points="143.269,76.6801 143.269,84.3647"
         class="Stem" />
      <polyline
         style="stroke:#000000;stroke-width:0.36000001;stroke-linecap:round;stroke-linejoin:bevel"
         id="polyline3068"
         points="118.531,78.0464 118.531,87.0973"
         class="Stem" />
      <polyline
         style="stroke:#000000;stroke-width:0.36000001;stroke-linecap:round;stroke-linejoin:bevel"
         id="polyline3070"
         points="105.826,79.4127 105.826,88.122"
         class="Stem" />
      <polyline
         style="stroke:#000000;stroke-width:0.36000001;stroke-linecap:round;stroke-linejoin:bevel"
         id="polyline3072"
         points="97.3331,78.0464 97.3331,86.4142"
         class="Stem" />
      <polyline
         style="stroke:#000000;stroke-width:0.36000001;stroke-linecap:round;stroke-linejoin:bevel"
         id="polyline3074"
         points="89.393,71.215 89.393,84.7063"
         class="Stem" />
      <polyline
         style="stroke:#000000;stroke-width:0.36000001;stroke-linecap:round;stroke-linejoin:bevel"
         id="polyline3076"
         points="81.4528,72.5813 81.4528,82.9984"
         class="Stem" />
      <path
         inkscape:connector-curvature="0"
         id="path4472"
         d="m 4.39063,-2.75 c 0.625,0 1.15625,0.16146 1.59375,0.48437 0.39583,0.35417 0.59375,0.79688 0.59375,1.32813 0,0.8958333 -0.45834,1.734375 -1.375,2.51563 C 4.26563,2.35938 3.26042,2.75 2.1875,2.75 1.5625,2.75 1.03646,2.58854 0.609375,2.26563 0.203125,1.91146 0,1.46875 0,0.9375 0,0.0416667 0.46875,-0.796875 1.40625,-1.57813 2.32292,-2.35938 3.31771,-2.75 4.39063,-2.75"
         transform="matrix(0.54652,0,0,0.54652,299.218,72.068)"
         class="Note" />
      <path
         inkscape:connector-curvature="0"
         id="path4478"
         d="m 4.39063,-2.75 c 0.625,0 1.15625,0.16146 1.59375,0.48437 0.39583,0.35417 0.59375,0.79688 0.59375,1.32813 0,0.8958333 -0.45834,1.734375 -1.375,2.51563 C 4.26563,2.35938 3.26042,2.75 2.1875,2.75 1.5625,2.75 1.03646,2.58854 0.609375,2.26563 0.203125,1.91146 0,1.46875 0,0.9375 0,0.0416667 0.46875,-0.796875 1.40625,-1.57813 2.32292,-2.35938 3.31771,-2.75 4.39063,-2.75"
         transform="matrix(0.54652,0,0,0.54652,283.344,73.4343)"
         class="Note" />
      <path
         inkscape:connector-curvature="0"
         id="path4482"
         d="m 4.39063,-2.75 c 0.625,0 1.15625,0.16146 1.59375,0.48437 0.39583,0.35417 0.59375,0.79688 0.59375,1.32813 0,0.8958333 -0.45834,1.734375 -1.375,2.51563 C 4.26563,2.35938 3.26042,2.75 2.1875,2.75 1.5625,2.75 1.03646,2.58854 0.609375,2.26563 0.203125,1.91146 0,1.46875 0,0.9375 0,0.0416667 0.46875,-0.796875 1.40625,-1.57813 2.32292,-2.35938 3.31771,-2.75 4.39063,-2.75"
         transform="matrix(0.54652,0,0,0.54652,274.02,80.2658)"
         class="Note" />
      <path
         inkscape:connector-curvature="0"
         id="path4488"
         d="m 4.39063,-2.75 c 0.625,0 1.15625,0.16146 1.59375,0.48437 0.39583,0.35417 0.59375,0.79688 0.59375,1.32813 0,0.8958333 -0.45834,1.734375 -1.375,2.51563 C 4.26563,2.35938 3.26042,2.75 2.1875,2.75 1.5625,2.75 1.03646,2.58854 0.609375,2.26563 0.203125,1.91146 0,1.46875 0,0.9375 0,0.0416667 0.46875,-0.796875 1.40625,-1.57813 2.32292,-2.35938 3.31771,-2.75 4.39063,-2.75"
         transform="matrix(0.54652,0,0,0.54652,262.365,77.5332)"
         class="Note" />
      <path
         inkscape:connector-curvature="0"
         id="path4492"
         d="m 4.39063,-2.75 c 0.625,0 1.15625,0.16146 1.59375,0.48437 0.39583,0.35417 0.59375,0.79688 0.59375,1.32813 0,0.8958333 -0.45834,1.734375 -1.375,2.51563 C 4.26563,2.35938 3.26042,2.75 2.1875,2.75 1.5625,2.75 1.03646,2.58854 0.609375,2.26563 0.203125,1.91146 0,1.46875 0,0.9375 0,0.0416667 0.46875,-0.796875 1.40625,-1.57813 2.32292,-2.35938 3.31771,-2.75 4.39063,-2.75"
         transform="matrix(0.54652,0,0,0.54652,253.04,74.8006)"
         class="Note" />
      <path
         inkscape:connector-curvature="0"
         id="path4494"
         d="m 4.39063,-2.75 c 0.625,0 1.15625,0.16146 1.59375,0.48437 0.39583,0.35417 0.59375,0.79688 0.59375,1.32813 0,0.8958333 -0.45834,1.734375 -1.375,2.51563 C 4.26563,2.35938 3.26042,2.75 2.1875,2.75 1.5625,2.75 1.03646,2.58854 0.609375,2.26563 0.203125,1.91146 0,1.46875 0,0.9375 0,0.0416667 0.46875,-0.796875 1.40625,-1.57813 2.32292,-2.35938 3.31771,-2.75 4.39063,-2.75"
         transform="matrix(0.54652,0,0,0.54652,247.213,76.1669)"
         class="Note" />
      <path
         inkscape:connector-curvature="0"
         id="path4496"
         d="m 4.39063,-2.75 c 0.625,0 1.15625,0.16146 1.59375,0.48437 0.39583,0.35417 0.59375,0.79688 0.59375,1.32813 0,0.8958333 -0.45834,1.734375 -1.375,2.51563 C 4.26563,2.35938 3.26042,2.75 2.1875,2.75 1.5625,2.75 1.03646,2.58854 0.609375,2.26563 0.203125,1.91146 0,1.46875 0,0.9375 0,0.0416667 0.46875,-0.796875 1.40625,-1.57813 2.32292,-2.35938 3.31771,-2.75 4.39063,-2.75"
         transform="matrix(0.54652,0,0,0.54652,241.385,77.5332)"
         class="Note" />
      <path
         inkscape:connector-curvature="0"
         id="path4498"
         d="m 4.39063,-2.75 c 0.625,0 1.15625,0.16146 1.59375,0.48437 0.39583,0.35417 0.59375,0.79688 0.59375,1.32813 0,0.8958333 -0.45834,1.734375 -1.375,2.51563 C 4.26563,2.35938 3.26042,2.75 2.1875,2.75 1.5625,2.75 1.03646,2.58854 0.609375,2.26563 0.203125,1.91146 0,1.46875 0,0.9375 0,0.0416667 0.46875,-0.796875 1.40625,-1.57813 2.32292,-2.35938 3.31771,-2.75 4.39063,-2.75"
         transform="matrix(0.54652,0,0,0.54652,232.061,78.8995)"
         class="Note" />
      <path
         inkscape:connector-curvature="0"
         id="path4502"
         d="m 4.39063,-2.75 c 0.625,0 1.15625,0.16146 1.59375,0.48437 0.39583,0.35417 0.59375,0.79688 0.59375,1.32813 0,0.8958333 -0.45834,1.734375 -1.375,2.51563 C 4.26563,2.35938 3.26042,2.75 2.1875,2.75 1.5625,2.75 1.03646,2.58854 0.609375,2.26563 0.203125,1.91146 0,1.46875 0,0.9375 0,0.0416667 0.46875,-0.796875 1.40625,-1.57813 2.32292,-2.35938 3.31771,-2.75 4.39063,-2.75"
         transform="matrix(0.54652,0,0,0.54652,226.233,77.5332)"
         class="Note" />
      <path
         inkscape:connector-curvature="0"
         id="path4504"
         d="m 4.39063,-2.75 c 0.625,0 1.15625,0.16146 1.59375,0.48437 0.39583,0.35417 0.59375,0.79688 0.59375,1.32813 0,0.8958333 -0.45834,1.734375 -1.375,2.51563 C 4.26563,2.35938 3.26042,2.75 2.1875,2.75 1.5625,2.75 1.03646,2.58854 0.609375,2.26563 0.203125,1.91146 0,1.46875 0,0.9375 0,0.0416667 0.46875,-0.796875 1.40625,-1.57813 2.32292,-2.35938 3.31771,-2.75 4.39063,-2.75"
         transform="matrix(0.54652,0,0,0.54652,220.406,76.1669)"
         class="Note" />
      <path
         inkscape:connector-curvature="0"
         id="path4510"
         d="m 4.39063,-2.75 c 0.625,0 1.15625,0.16146 1.59375,0.48437 0.39583,0.35417 0.59375,0.79688 0.59375,1.32813 0,0.8958333 -0.45834,1.734375 -1.375,2.51563 C 4.26563,2.35938 3.26042,2.75 2.1875,2.75 1.5625,2.75 1.03646,2.58854 0.609375,2.26563 0.203125,1.91146 0,1.46875 0,0.9375 0,0.0416667 0.46875,-0.796875 1.40625,-1.57813 2.32292,-2.35938 3.31771,-2.75 4.39063,-2.75"
         transform="matrix(0.54652,0,0,0.54652,188.539,77.5332)"
         class="Note" />
      <path
         inkscape:connector-curvature="0"
         id="path4516"
         d="m 4.39063,-2.75 c 0.625,0 1.15625,0.16146 1.59375,0.48437 0.39583,0.35417 0.59375,0.79688 0.59375,1.32813 0,0.8958333 -0.45834,1.734375 -1.375,2.51563 C 4.26563,2.35938 3.26042,2.75 2.1875,2.75 1.5625,2.75 1.03646,2.58854 0.609375,2.26563 0.203125,1.91146 0,1.46875 0,0.9375 0,0.0416667 0.46875,-0.796875 1.40625,-1.57813 2.32292,-2.35938 3.31771,-2.75 4.39063,-2.75"
         transform="matrix(0.54652,0,0,0.54652,172.013,74.8006)"
         class="Note" />
      <path
         inkscape:connector-curvature="0"
         id="path4518"
         d="m 4.39063,-2.75 c 0.625,0 1.15625,0.16146 1.59375,0.48437 0.39583,0.35417 0.59375,0.79688 0.59375,1.32813 0,0.8958333 -0.45834,1.734375 -1.375,2.51563 C 4.26563,2.35938 3.26042,2.75 2.1875,2.75 1.5625,2.75 1.03646,2.58854 0.609375,2.26563 0.203125,1.91146 0,1.46875 0,0.9375 0,0.0416667 0.46875,-0.796875 1.40625,-1.57813 2.32292,-2.35938 3.31771,-2.75 4.39063,-2.75"
         transform="matrix(0.54652,0,0,0.54652,166.848,76.1669)"
         class="Note" />
      <path
         inkscape:connector-curvature="0"
         id="path4520"
         d="m 4.39063,-2.75 c 0.625,0 1.15625,0.16146 1.59375,0.48437 0.39583,0.35417 0.59375,0.79688 0.59375,1.32813 0,0.8958333 -0.45834,1.734375 -1.375,2.51563 C 4.26563,2.35938 3.26042,2.75 2.1875,2.75 1.5625,2.75 1.03646,2.58854 0.609375,2.26563 0.203125,1.91146 0,1.46875 0,0.9375 0,0.0416667 0.46875,-0.796875 1.40625,-1.57813 2.32292,-2.35938 3.31771,-2.75 4.39063,-2.75"
         transform="matrix(0.54652,0,0,0.54652,161.684,74.8006)"
         class="Note" />
      <path
         inkscape:connector-curvature="0"
         id="path4522"
         d="m 4.39063,-2.75 c 0.625,0 1.15625,0.16146 1.59375,0.48437 0.39583,0.35417 0.59375,0.79688 0.59375,1.32813 0,0.8958333 -0.45834,1.734375 -1.375,2.51563 C 4.26563,2.35938 3.26042,2.75 2.1875,2.75 1.5625,2.75 1.03646,2.58854 0.609375,2.26563 0.203125,1.91146 0,1.46875 0,0.9375 0,0.0416667 0.46875,-0.796875 1.40625,-1.57813 2.32292,-2.35938 3.31771,-2.75 4.39063,-2.75"
         transform="matrix(0.54652,0,0,0.54652,153.42,73.4343)"
         class="Note" />
      <path
         inkscape:connector-curvature="0"
         id="path4524"
         d="m 4.39063,-2.75 c 0.625,0 1.15625,0.16146 1.59375,0.48437 0.39583,0.35417 0.59375,0.79688 0.59375,1.32813 0,0.8958333 -0.45834,1.734375 -1.375,2.51563 C 4.26563,2.35938 3.26042,2.75 2.1875,2.75 1.5625,2.75 1.03646,2.58854 0.609375,2.26563 0.203125,1.91146 0,1.46875 0,0.9375 0,0.0416667 0.46875,-0.796875 1.40625,-1.57813 2.32292,-2.35938 3.31771,-2.75 4.39063,-2.75"
         transform="matrix(0.54652,0,0,0.54652,148.256,74.8006)"
         class="Note" />
      <path
         inkscape:connector-curvature="0"
         id="path4526"
         d="m 4.39063,-2.75 c 0.625,0 1.15625,0.16146 1.59375,0.48437 0.39583,0.35417 0.59375,0.79688 0.59375,1.32813 0,0.8958333 -0.45834,1.734375 -1.375,2.51563 C 4.26563,2.35938 3.26042,2.75 2.1875,2.75 1.5625,2.75 1.03646,2.58854 0.609375,2.26563 0.203125,1.91146 0,1.46875 0,0.9375 0,0.0416667 0.46875,-0.796875 1.40625,-1.57813 2.32292,-2.35938 3.31771,-2.75 4.39063,-2.75"
         transform="matrix(0.54652,0,0,0.54652,143.091,76.1669)"
         class="Note" />
      <path
         inkscape:connector-curvature="0"
         id="path4528"
         d="m 4.39063,-2.75 c 0.625,0 1.15625,0.16146 1.59375,0.48437 0.39583,0.35417 0.59375,0.79688 0.59375,1.32813 0,0.8958333 -0.45834,1.734375 -1.375,2.51563 C 4.26563,2.35938 3.26042,2.75 2.1875,2.75 1.5625,2.75 1.03646,2.58854 0.609375,2.26563 0.203125,1.91146 0,1.46875 0,0.9375 0,0.0416667 0.46875,-0.796875 1.40625,-1.57813 2.32292,-2.35938 3.31771,-2.75 4.39063,-2.75"
         transform="matrix(0.54652,0,0,0.54652,118.353,77.5332)"
         class="Note" />
      <path
         inkscape:connector-curvature="0"
         id="path4530"
         d="m 4.39063,-2.75 c 0.625,0 1.15625,0.16146 1.59375,0.48437 0.39583,0.35417 0.59375,0.79688 0.59375,1.32813 0,0.8958333 -0.45834,1.734375 -1.375,2.51563 C 4.26563,2.35938 3.26042,2.75 2.1875,2.75 1.5625,2.75 1.03646,2.58854 0.609375,2.26563 0.203125,1.91146 0,1.46875 0,0.9375 0,0.0416667 0.46875,-0.796875 1.40625,-1.57813 2.32292,-2.35938 3.31771,-2.75 4.39063,-2.75"
         transform="matrix(0.54652,0,0,0.54652,105.649,78.8995)"
         class="Note" />
      <path
         inkscape:connector-curvature="0"
         id="path4532"
         d="m 4.39063,-2.75 c 0.625,0 1.15625,0.16146 1.59375,0.48437 0.39583,0.35417 0.59375,0.79688 0.59375,1.32813 0,0.8958333 -0.45834,1.734375 -1.375,2.51563 C 4.26563,2.35938 3.26042,2.75 2.1875,2.75 1.5625,2.75 1.03646,2.58854 0.609375,2.26563 0.203125,1.91146 0,1.46875 0,0.9375 0,0.0416667 0.46875,-0.796875 1.40625,-1.57813 2.32292,-2.35938 3.31771,-2.75 4.39063,-2.75"
         transform="matrix(0.54652,0,0,0.54652,97.1555,77.5332)"
         class="Note" />
      <path
         inkscape:connector-curvature="0"
         id="path4534"
         d="m 4.39063,-2.75 c 0.625,0 1.15625,0.16146 1.59375,0.48437 0.39583,0.35417 0.59375,0.79688 0.59375,1.32813 0,0.8958333 -0.45834,1.734375 -1.375,2.51563 C 4.26563,2.35938 3.26042,2.75 2.1875,2.75 1.5625,2.75 1.03646,2.58854 0.609375,2.26563 0.203125,1.91146 0,1.46875 0,0.9375 0,0.0416667 0.46875,-0.796875 1.40625,-1.57813 2.32292,-2.35938 3.31771,-2.75 4.39063,-2.75"
         transform="matrix(0.54652,0,0,0.54652,89.2153,70.7017)"
         class="Note" />
      <path
         inkscape:connector-curvature="0"
         id="path4536"
         d="m 4.39063,-2.75 c 0.625,0 1.15625,0.16146 1.59375,0.48437 0.39583,0.35417 0.59375,0.79688 0.59375,1.32813 0,0.8958333 -0.45834,1.734375 -1.375,2.51563 C 4.26563,2.35938 3.26042,2.75 2.1875,2.75 1.5625,2.75 1.03646,2.58854 0.609375,2.26563 0.203125,1.91146 0,1.46875 0,0.9375 0,0.0416667 0.46875,-0.796875 1.40625,-1.57813 2.32292,-2.35938 3.31771,-2.75 4.39063,-2.75"
         transform="matrix(0.54652,0,0,0.54652,81.2752,72.068)"
         class="Note" />
      <path
         inkscape:connector-curvature="0"
         id="path4604"
         d="m 11.4297,-1.78125 c -0.1927,-0.19792 -0.2891,-0.4401 -0.2891,-0.72656 0,-0.28646 0.0964,-0.52604 0.2891,-0.71875 0.1927,-0.19271 0.4323,-0.28907 0.7187,-0.28907 0.2865,0 0.5287,0.09636 0.7266,0.28907 0.1979,0.19271 0.2969,0.43229 0.2969,0.71875 0,0.28646 -0.099,0.52864 -0.2969,0.72656 -0.1979,0.19792 -0.4401,0.29687 -0.7266,0.29687 -0.2864,0 -0.526,-0.09895 -0.7187,-0.29687 m 0,5.00781 C 11.237,3.03385 11.1406,2.79427 11.1406,2.50781 c 0,-0.28646 0.0964,-0.52864 0.2891,-0.72656 0.1927,-0.19792 0.4323,-0.29687 0.7187,-0.29687 0.2865,0 0.5287,0.09895 0.7266,0.29687 0.1979,0.19792 0.2969,0.4401 0.2969,0.72656 0,0.28646 -0.099,0.52604 -0.2969,0.71875 -0.1979,0.19271 -0.4401,0.28907 -0.7266,0.28907 -0.2864,0 -0.526,-0.09636 -0.7187,-0.28907 M 4.65625,-5.25 c 1.72917,0 3.14583,0.43229 4.25,1.29687 1.07292,0.91667 1.60935,2.15625 1.60935,3.718755 0,1.052083 -0.2083,2.015625 -0.62497,2.890625 C 9.49479,3.57292 8.97917,4.38021 8.34375,5.07813 7.6875,5.79688 6.90104,6.47396 5.98438,7.10938 5.07813,7.73438 4.15104,8.29688 3.20313,8.79688 1.27604,9.76563 0.208333,10.25 0,10.25 c -0.166667,0 -0.25,-0.0833 -0.25,-0.25 0,-0.0625 0.026042,-0.11979 0.078125,-0.17187 0.666667,-0.39584 1.479165,-0.89584 2.437505,-1.5 0.625,-0.40625 1.35416,-0.96875 2.1875,-1.6875 0.8125,-0.67709 1.4375,-1.3125 1.875,-1.90625 0.45833,-0.59375 0.875,-1.32292 1.25,-2.1875 C 7.90104,1.67188 8.0625,0.807292 8.0625,-0.046875 8.0625,-1.30729 7.75,-2.40625 7.125,-3.34375 6.5,-4.28125 5.67708,-4.75 4.65625,-4.75 c -0.72917,0 -1.35417,0.23437 -1.875,0.70312 -0.5625,0.47917 -0.96875,1.08334 -1.21875,1.8125 0.25,-0.10416 0.47917,-0.15625 0.6875,-0.15625 0.54167,0 1.01042,0.19792 1.40625,0.59375 0.38542,0.41667 0.57813,0.89063 0.57813,1.42188 0,0.5625 -0.1875,1.067708 -0.5625,1.51563 C 3.26563,1.53646 2.79167,1.73438 2.25,1.73438 1.66667,1.73438 1.14063,1.53646 0.671875,1.14063 0.223958,0.692708 0,0.1875 0,-0.375 0,-1.71875 0.458333,-2.86458 1.375,-3.8125 2.27083,-4.77083 3.36458,-5.25 4.65625,-5.25"
         transform="matrix(0.54652,0,0,0.54652,49.1089,78.8995)"
         class="Clef" />
      <path
         inkscape:connector-curvature="0"
         id="path4696"
         d="M 0.921875,-0.828125 V 0.71875 C 0.921875,1.27083 0.947917,1.70833 1,2.03125 1.42708,1.66667 1.73438,1.39583 1.92188,1.21875 2.13021,1.01042 2.33854,0.721354 2.54688,0.351563 2.75521,-0.0182292 2.85938,-0.385417 2.85938,-0.75 2.85938,-1.11458 2.78125,-1.42708 2.625,-1.6875 2.46875,-1.94792 2.26042,-2.07813 2,-2.07813 c -0.3125,0 -0.57292,0.1198 -0.78125,0.35938 -0.19792,0.26042 -0.296875,0.55729 -0.296875,0.890625 M 0.09375,2.75 l -0.25,-11.89063 c 0.1875,-0.10416 0.372396,-0.15625 0.554688,-0.15625 0.182291,0 0.361979,0.05209 0.539062,0.15625 L 0.78125,-2.25 C 1.3125,-2.70833 1.92708,-2.9375 2.625,-2.9375 c 0.5,0 0.91927,0.20833 1.25781,0.625 0.33854,0.41667 0.50782,0.89583 0.50782,1.4375 0,0.333333 -0.10938,0.692708 -0.32813,1.078125 C 3.85417,0.546875 3.63542,0.817708 3.40625,1.01563 3.27083,1.11979 2.9375,1.38021 2.40625,1.79688 2.25,1.91146 2.0651,2.04688 1.85156,2.20313 1.63802,2.35938 1.50521,2.45833 1.45313,2.5 1.35938,2.55208 1.27083,2.65625 1.1875,2.8125 1.10417,2.94792 1,3.05729 0.875,3.14063 0.791667,3.22396 0.684896,3.26563 0.554688,3.26563 0.424479,3.26563 0.317708,3.21875 0.234375,3.125 0.140625,3.03125 0.09375,2.90625 0.09375,2.75"
         transform="matrix(0.54652,0,0,0.54652,60.3091,80.2658)"
         class="KeySig" />
      <path
         inkscape:connector-curvature="0"
         id="path4698"
         d="M 0.921875,-0.828125 V 0.71875 C 0.921875,1.27083 0.947917,1.70833 1,2.03125 1.42708,1.66667 1.73438,1.39583 1.92188,1.21875 2.13021,1.01042 2.33854,0.721354 2.54688,0.351563 2.75521,-0.0182292 2.85938,-0.385417 2.85938,-0.75 2.85938,-1.11458 2.78125,-1.42708 2.625,-1.6875 2.46875,-1.94792 2.26042,-2.07813 2,-2.07813 c -0.3125,0 -0.57292,0.1198 -0.78125,0.35938 -0.19792,0.26042 -0.296875,0.55729 -0.296875,0.890625 M 0.09375,2.75 l -0.25,-11.89063 c 0.1875,-0.10416 0.372396,-0.15625 0.554688,-0.15625 0.182291,0 0.361979,0.05209 0.539062,0.15625 L 0.78125,-2.25 C 1.3125,-2.70833 1.92708,-2.9375 2.625,-2.9375 c 0.5,0 0.91927,0.20833 1.25781,0.625 0.33854,0.41667 0.50782,0.89583 0.50782,1.4375 0,0.333333 -0.10938,0.692708 -0.32813,1.078125 C 3.85417,0.546875 3.63542,0.817708 3.40625,1.01563 3.27083,1.11979 2.9375,1.38021 2.40625,1.79688 2.25,1.91146 2.0651,2.04688 1.85156,2.20313 1.63802,2.35938 1.50521,2.45833 1.45313,2.5 1.35938,2.55208 1.27083,2.65625 1.1875,2.8125 1.10417,2.94792 1,3.05729 0.875,3.14063 0.791667,3.22396 0.684896,3.26563 0.554688,3.26563 0.424479,3.26563 0.317708,3.21875 0.234375,3.125 0.140625,3.03125 0.09375,2.90625 0.09375,2.75"
         transform="matrix(0.54652,0,0,0.54652,57.5765,84.3647)"
         class="KeySig" />
      <path
         inkscape:connector-curvature="0"
         id="path4712"
         d="m 4.5,-4.75 c 0.38542,0 0.71615,-0.04427 0.99219,-0.13281 0.27604,-0.08854 0.45052,-0.13282 0.52344,-0.13282 0.09375,0 0.16666,0.02605 0.21875,0.07813 0.04166,0.03125 0.0677,0.07292 0.07812,0.125 0,0.03125 -0.01562,0.07292 -0.04687,0.125 L 0.59375,1.92188 h 3.32813 v -2.625005 c 0,-0.166667 0.04687,-0.312505 0.14062,-0.437505 0.15625,-0.125 0.28646,-0.20312 0.39063,-0.23437 0.16666,-0.07292 0.375,-0.25521 0.625,-0.54688 0.20833,-0.22916 0.45833,-0.63541 0.75,-1.21875 0.03125,-0.08333 0.08854,-0.125 0.17187,-0.125 0.15625,0 0.24479,0.09375 0.26563,0.28125 v 4.90626 h 1.4375 c 0.17708,0 0.28125,0.09375 0.3125,0.28125 C 8.01563,2.40104 7.91146,2.5 7.70313,2.5 h -1.4375 v 0.15625 c 0,0.52083 0.1302,0.96354 0.39062,1.32813 0.30208,0.36458 0.65625,0.54687 1.0625,0.54687 0.15625,0 0.23438,0.07813 0.23438,0.23438 C 7.95313,4.92188 7.875,5 7.71875,5 7.44792,5 7.00521,4.96354 6.39063,4.89063 5.82813,4.79688 5.39063,4.75 5.07813,4.75 4.75521,4.75 4.31771,4.79688 3.76563,4.89063 3.18229,4.96354 2.75,5 2.46875,5 2.3125,5 2.23438,4.92188 2.23438,4.76563 c 0,-0.15625 0.07812,-0.23438 0.23437,-0.23438 0.39583,0 0.74479,-0.18229 1.04688,-0.54687 C 3.78646,3.61979 3.92188,3.17708 3.92188,2.65625 V 2.5 H 0.59375 C 0.364583,2.5 0.208333,2.44792 0.125,2.34375 0.0104167,2.27083 -0.046875,2.16667 -0.046875,2.03125 -0.046875,1.98958 0.0520833,1.85417 0.25,1.625 0.479167,1.36458 0.713542,1.04688 0.953125,0.671875 1.24479,0.223958 1.52083,-0.234375 1.78125,-0.703125 2.0625,-1.23438 2.29167,-1.84896 2.46875,-2.54688 2.65625,-3.24479 2.75,-3.95833 2.75,-4.6875 2.75,-4.89583 2.84375,-5 3.03125,-5 c 0.04167,0 0.125,0.02083 0.25,0.0625 0.04167,0.01042 0.125,0.02865 0.25,0.05469 0.125,0.02604 0.22396,0.04948 0.29688,0.07031 C 4.06771,-4.77083 4.29167,-4.75 4.5,-4.75"
         transform="matrix(0.54652,0,0,0.54652,64.1262,78.8995)"
         class="TimeSig" />
      <path
         inkscape:connector-curvature="0"
         id="path4714"
         d="m 4.5,-4.75 c 0.38542,0 0.71615,-0.04427 0.99219,-0.13281 0.27604,-0.08854 0.45052,-0.13282 0.52344,-0.13282 0.09375,0 0.16666,0.02605 0.21875,0.07813 0.04166,0.03125 0.0677,0.07292 0.07812,0.125 0,0.03125 -0.01562,0.07292 -0.04687,0.125 L 0.59375,1.92188 h 3.32813 v -2.625005 c 0,-0.166667 0.04687,-0.312505 0.14062,-0.437505 0.15625,-0.125 0.28646,-0.20312 0.39063,-0.23437 0.16666,-0.07292 0.375,-0.25521 0.625,-0.54688 0.20833,-0.22916 0.45833,-0.63541 0.75,-1.21875 0.03125,-0.08333 0.08854,-0.125 0.17187,-0.125 0.15625,0 0.24479,0.09375 0.26563,0.28125 v 4.90626 h 1.4375 c 0.17708,0 0.28125,0.09375 0.3125,0.28125 C 8.01563,2.40104 7.91146,2.5 7.70313,2.5 h -1.4375 v 0.15625 c 0,0.52083 0.1302,0.96354 0.39062,1.32813 0.30208,0.36458 0.65625,0.54687 1.0625,0.54687 0.15625,0 0.23438,0.07813 0.23438,0.23438 C 7.95313,4.92188 7.875,5 7.71875,5 7.44792,5 7.00521,4.96354 6.39063,4.89063 5.82813,4.79688 5.39063,4.75 5.07813,4.75 4.75521,4.75 4.31771,4.79688 3.76563,4.89063 3.18229,4.96354 2.75,5 2.46875,5 2.3125,5 2.23438,4.92188 2.23438,4.76563 c 0,-0.15625 0.07812,-0.23438 0.23437,-0.23438 0.39583,0 0.74479,-0.18229 1.04688,-0.54687 C 3.78646,3.61979 3.92188,3.17708 3.92188,2.65625 V 2.5 H 0.59375 C 0.364583,2.5 0.208333,2.44792 0.125,2.34375 0.0104167,2.27083 -0.046875,2.16667 -0.046875,2.03125 -0.046875,1.98958 0.0520833,1.85417 0.25,1.625 0.479167,1.36458 0.713542,1.04688 0.953125,0.671875 1.24479,0.223958 1.52083,-0.234375 1.78125,-0.703125 2.0625,-1.23438 2.29167,-1.84896 2.46875,-2.54688 2.65625,-3.24479 2.75,-3.95833 2.75,-4.6875 2.75,-4.89583 2.84375,-5 3.03125,-5 c 0.04167,0 0.125,0.02083 0.25,0.0625 0.04167,0.01042 0.125,0.02865 0.25,0.05469 0.125,0.02604 0.22396,0.04948 0.29688,0.07031 C 4.06771,-4.77083 4.29167,-4.75 4.5,-4.75"
         transform="matrix(0.54652,0,0,0.54652,64.1262,84.3647)"
         class="TimeSig" />
      <path
         inkscape:connector-curvature="0"
         id="path4892"
         d="m 1.40625,-4.10938 c 0.375,0 0.66146,0.10417 0.85938,0.3125 0.19791,0.23959 0.30208,0.46355 0.3125,0.67188 0.03125,0.19792 0.09895,0.41667 0.20312,0.65625 0.11458,0.20833 0.26042,0.3125 0.4375,0.3125 0.14583,0 0.36458,-0.16146 0.65625,-0.48438 0.26042,-0.28125 0.44792,-0.53645 0.5625,-0.76562 0.0625,-0.125 0.15104,-0.1875 0.26563,-0.1875 H 4.73438 C 4.85938,-3.58333 4.94792,-3.52083 5,-3.40625 L 2.54688,5 C 2.41146,5.13542 2.22656,5.20313 1.99219,5.20313 1.75781,5.20313 1.57813,5.13542 1.45313,5 l 2.34375,-6.53125 c -0.83334,0.30208 -1.53646,0.45312 -2.10938,0.45312 -0.46875,0 -0.875,-0.15104 -1.21875,-0.45312 -0.354167,-0.28125 -0.53125,-0.65625 -0.53125,-1.125 0,-0.40625 0.1458333,-0.74479 0.4375,-1.01563 0.28125,-0.29166 0.625,-0.4375 1.03125,-0.4375"
         transform="matrix(0.54652,0,0,0.54652,211.082,81.6321)"
         class="Rest" />
      <path
         inkscape:connector-curvature="0"
         id="path4900"
         d="m 1.40625,-4.10938 c 0.375,0 0.66146,0.10417 0.85938,0.3125 0.19791,0.23959 0.30208,0.46355 0.3125,0.67188 0.03125,0.19792 0.09895,0.41667 0.20312,0.65625 0.11458,0.20833 0.26042,0.3125 0.4375,0.3125 0.14583,0 0.36458,-0.16146 0.65625,-0.48438 0.26042,-0.28125 0.44792,-0.53645 0.5625,-0.76562 0.0625,-0.125 0.15104,-0.1875 0.26563,-0.1875 H 4.73438 C 4.85938,-3.58333 4.94792,-3.52083 5,-3.40625 L 2.54688,5 C 2.41146,5.13542 2.22656,5.20313 1.99219,5.20313 1.75781,5.20313 1.57813,5.13542 1.45313,5 l 2.34375,-6.53125 c -0.83334,0.30208 -1.53646,0.45312 -2.10938,0.45312 -0.46875,0 -0.875,-0.15104 -1.21875,-0.45312 -0.354167,-0.28125 -0.53125,-0.65625 -0.53125,-1.125 0,-0.40625 0.1458333,-0.74479 0.4375,-1.01563 0.28125,-0.29166 0.625,-0.4375 1.03125,-0.4375"
         transform="matrix(0.54652,0,0,0.54652,134.828,81.6321)"
         class="Rest" />
      <path
         inkscape:connector-curvature="0"
         id="path4908"
         d="m 1.40625,-4.10938 c 0.375,0 0.66146,0.10417 0.85938,0.3125 0.19791,0.23959 0.30208,0.46355 0.3125,0.67188 0.03125,0.19792 0.09895,0.41667 0.20312,0.65625 0.11458,0.20833 0.26042,0.3125 0.4375,0.3125 0.14583,0 0.36458,-0.16146 0.65625,-0.48438 0.26042,-0.28125 0.44792,-0.53645 0.5625,-0.76562 0.0625,-0.125 0.15104,-0.1875 0.26563,-0.1875 H 4.73438 C 4.85938,-3.58333 4.94792,-3.52083 5,-3.40625 L 2.54688,5 C 2.41146,5.13542 2.22656,5.20313 1.99219,5.20313 1.75781,5.20313 1.57813,5.13542 1.45313,5 l 2.34375,-6.53125 c -0.83334,0.30208 -1.53646,0.45312 -2.10938,0.45312 -0.46875,0 -0.875,-0.15104 -1.21875,-0.45312 -0.354167,-0.28125 -0.53125,-0.65625 -0.53125,-1.125 0,-0.40625 0.1458333,-0.74479 0.4375,-1.01563 0.28125,-0.29166 0.625,-0.4375 1.03125,-0.4375"
         transform="matrix(0.54652,0,0,0.54652,73.3351,81.6321)"
         class="Rest" />
      <path
         style="fill-rule:evenodd"
         inkscape:connector-curvature="0"
         id="path5640"
         d="m 253.04,87.0973 h 30.659 v 1.3663 H 253.04 v -1.3663"
         class="Beam" />
      <path
         style="fill-rule:evenodd"
         inkscape:connector-curvature="0"
         id="path5642"
         d="m 232.061,86.4142 15.507,-2.7967 v 1.3663 l -15.507,2.7967 v -1.3663"
         class="Beam" />
      <path
         style="fill-rule:evenodd"
         inkscape:connector-curvature="0"
         id="path5644"
         d="m 241.385,82.6831 6.183,-1.115 v 1.3663 l -6.183,1.115 v -1.3663"
         class="Beam" />
      <path
         style="fill-rule:evenodd"
         inkscape:connector-curvature="0"
         id="path5646"
         d="m 220.406,85.731 6.183,0.7248 v 1.3663 l -6.183,-0.7248 V 85.731"
         class="Beam" />
      <path
         style="fill-rule:evenodd"
         inkscape:connector-curvature="0"
         id="path5648"
         d="m 220.406,83.6816 6.183,0.7248 v 1.3663 l -6.183,-0.7248 v -1.3663"
         class="Beam" />
      <path
         style="fill-rule:evenodd"
         inkscape:connector-curvature="0"
         id="path5652"
         d="m 153.42,80.949 13.783,2.8049 v 1.3663 L 153.42,82.3153 V 80.949"
         class="Beam" />
      <path
         style="fill-rule:evenodd"
         inkscape:connector-curvature="0"
         id="path5654"
         d="m 161.684,80.5811 5.519,1.1233 v 1.3663 l -5.519,-1.1233 v -1.3663"
         class="Beam" />
      <path
         style="fill-rule:evenodd"
         inkscape:connector-curvature="0"
         id="path5656"
         d="m 143.091,83.6816 5.52,-0.7302 v 1.3663 l -5.52,0.7302 v -1.3663"
         class="Beam" />
      <path
         style="fill-rule:evenodd"
         inkscape:connector-curvature="0"
         id="path5658"
         d="m 143.091,81.6321 5.52,-0.7301 v 1.3663 l -5.52,0.7301 v -1.3663"
         class="Beam" />
      <path
         style="fill-rule:evenodd"
         inkscape:connector-curvature="0"
         id="path5660"
         d="m 81.2752,82.3153 16.2355,3.4921 v 1.3663 L 81.2752,83.6816 v -1.3663"
         class="Beam" />
      <path
         inkscape:connector-curvature="0"
         id="path5710"
         d="M 0.335938,0.804688 C 0.111979,0.580729 0,0.3125 0,0 0,-0.3125 0.111979,-0.580729 0.335938,-0.804688 0.559896,-1.02865 0.828125,-1.14063 1.14063,-1.14063 c 0.3125,0 0.57812,0.11198 0.79687,0.335942 C 2.15625,-0.580729 2.26563,-0.3125 2.26563,0 2.26563,0.3125 2.15625,0.580729 1.9375,0.804688 1.71875,1.02865 1.45313,1.14063 1.14063,1.14063 0.828125,1.14063 0.559896,1.02865 0.335938,0.804688"
         transform="matrix(0.54652,0,0,0.54652,303.772,72.068)"
         class="NoteDot" />
      <polyline
         style="stroke:#000000;stroke-width:0.44;stroke-linejoin:bevel"
         transform="translate(-84.3532)"
         class="BarLine"
         points="131.276,76.1669 131.276,87.0973"
         id="polyline6525" />
    </g>
    <g
       id="g6730"
       transform="translate(0,5.9908986)">
      <path
         inkscape:connector-curvature="0"
         style="fill:none;stroke:#000000;stroke-width:0.16135983;stroke-linejoin:bevel"
         d="M 46.9228,47.4746 H 326.66243"
         id="polyline6" />
      <path
         inkscape:connector-curvature="0"
         style="fill:none;stroke:#000000;stroke-width:0.16135983;stroke-linejoin:bevel"
         d="M 46.9228,50.2072 H 326.66243"
         id="polyline8" />
      <path
         inkscape:connector-curvature="0"
         style="fill:none;stroke:#000000;stroke-width:0.16135983;stroke-linejoin:bevel"
         d="M 46.9228,52.9398 H 326.66243"
         id="polyline10" />
      <path
         inkscape:connector-curvature="0"
         style="fill:none;stroke:#000000;stroke-width:0.16135983;stroke-linejoin:bevel"
         d="M 46.9228,55.6724 H 326.66243"
         id="polyline12" />
      <path
         inkscape:connector-curvature="0"
         style="fill:none;stroke:#000000;stroke-width:0.16135983;stroke-linejoin:bevel"
         d="M 46.9228,58.405 H 326.66243"
         id="polyline14" />
      <polyline
         id="polyline620"
         points="295.721,47.4746 295.721,58.405"
         class="BarLine"
         style="stroke:#000000;stroke-width:0.44;stroke-linejoin:bevel" />
      <polyline
         id="polyline628"
         points="205.284,47.4746 205.284,58.405"
         class="BarLine"
         style="stroke:#000000;stroke-width:0.44;stroke-linejoin:bevel" />
      <polyline
         id="polyline636"
         points="131.276,47.4746 131.276,58.405"
         class="BarLine"
         style="stroke:#000000;stroke-width:0.44;stroke-linejoin:bevel" />
      <path
         id="path778"
         d="m -0.15625,-7.5 c 0.1666667,-0.09375 0.335938,-0.14063 0.507813,-0.14063 0.171875,0 0.341145,0.04688 0.507812,0.14063 l -0.0625,3.65625 2.140625,-0.39063 h 0.07813 c 0.22916,0 0.34375,0.10938 0.34375,0.32813 L 3.5,7.5 C 3.33333,7.59375 3.16406,7.64063 2.99219,7.64063 2.82031,7.64063 2.65104,7.59375 2.48438,7.5 L 2.54688,3.84375 0.4375,4.23438 H 0.359375 C 0.119792,4.23438 0,4.125 0,3.90625 L -0.15625,-7.5 M 2.5625,1.89063 2.625,-2.25 0.78125,-1.89063 0.71875,2.25 2.5625,1.89063"
         transform="matrix(0.54652,0,0,0.54652,259.863,58.405)"
         class="Accidental"
         inkscape:connector-curvature="0" />
      <path
         id="path780"
         d="m 4.3125,6.23438 c 0,0.25 -0.1224,0.375 -0.36719,0.375 -0.24479,0 -0.36718,-0.125 -0.36718,-0.375 V 3.34375 l -1.65625,0.625 V 7.125 c 0,0.25 -0.125,0.375 -0.375,0.375 -0.25,0 -0.375,-0.125 -0.375,-0.375 V 4.21875 L 0.546875,4.45313 C 0.536458,4.46354 0.484375,4.46875 0.390625,4.46875 0.286458,4.46875 0.195313,4.42969 0.117188,4.35156 0.0390625,4.27344 0,4.18229 0,4.07813 V 2.875 C 0,2.67708 0.0833333,2.55208 0.25,2.5 L 1.17188,2.1875 v -3.20313 l -0.625005,0.218755 c -0.010417,0.010417 -0.0625,0.015625 -0.15625,0.015625 -0.104167,0 -0.195312,-0.039063 -0.273437,-0.117188 C 0.0390625,-0.976563 0,-1.06771 0,-1.17188 v -1.21875 c 0,-0.17708 0.0833333,-0.29166 0.25,-0.34375 l 0.92188,-0.35937 v -3.14063 c 0,-0.25 0.125,-0.375 0.375,-0.375 0.25,0 0.375,0.125 0.375,0.375 v 2.89063 l 1.65625,-0.625 V -7.125 c 0,-0.25 0.12239,-0.375 0.36718,-0.375 0.24479,0 0.36719,0.125 0.36719,0.375 v 2.90625 l 0.65625,-0.23438 c 0.01042,-0.01041 0.05208,-0.01562 0.125,-0.01562 0.09375,0 0.19271,0.03646 0.29688,0.10937 0.08333,0.08334 0.125,0.17709 0.125,0.28125 V -2.875 c 0,0.1875 -0.09375,0.3125 -0.28125,0.375 L 4.3125,-2.1875 V 1.01563 L 4.96875,0.796875 C 4.97917,0.786458 5.02083,0.78125 5.09375,0.78125 c 0.09375,0 0.19271,0.041667 0.29688,0.125 0.08333,0.072917 0.125,0.16146 0.125,0.26563 v 1.21875 c 0,0.16666 -0.09375,0.28125 -0.28125,0.34375 L 4.3125,3.09375 V 6.23438 M 3.57813,-1.89063 1.92188,-1.3125 V 1.89063 L 3.57813,1.3125 v -3.20313"
         transform="matrix(0.54652,0,0,0.54652,206.924,61.1376)"
         class="Accidental"
         inkscape:connector-curvature="0" />
      <polyline
         id="polyline1610"
         points="210.262,61.1376 215.499,61.1376"
         class="LedgerLine"
         style="stroke:#000000;stroke-width:0.44;stroke-linecap:square;stroke-linejoin:bevel" />
      <polyline
         id="polyline3008"
         points="317.913,53.7929 317.913,45.4252"
         class="Stem"
         style="stroke:#000000;stroke-width:0.36000001;stroke-linecap:round;stroke-linejoin:bevel" />
      <polyline
         id="polyline3010"
         points="312.038,55.1592 312.038,46.2134"
         class="Stem"
         style="stroke:#000000;stroke-width:0.36000001;stroke-linecap:round;stroke-linejoin:bevel" />
      <polyline
         id="polyline3014"
         points="302.638,56.5255 302.638,47.4746"
         class="Stem"
         style="stroke:#000000;stroke-width:0.36000001;stroke-linecap:round;stroke-linejoin:bevel" />
      <polyline
         id="polyline3016"
         points="292.592,57.8918 292.592,50.2072"
         class="Stem"
         style="stroke:#000000;stroke-width:0.36000001;stroke-linecap:round;stroke-linejoin:bevel" />
      <polyline
         id="polyline3020"
         points="286.764,56.5255 286.764,49.1562"
         class="Stem"
         style="stroke:#000000;stroke-width:0.36000001;stroke-linecap:round;stroke-linejoin:bevel" />
      <polyline
         id="polyline3024"
         points="277.44,55.1592 277.44,47.4746"
         class="Stem"
         style="stroke:#000000;stroke-width:0.36000001;stroke-linecap:round;stroke-linejoin:bevel" />
      <polyline
         id="polyline3026"
         points="271.612,56.5255 271.612,47.4746"
         class="Stem"
         style="stroke:#000000;stroke-width:0.36000001;stroke-linecap:round;stroke-linejoin:bevel" />
      <polyline
         id="polyline3030"
         points="265.785,57.8918 265.785,48.1578"
         class="Stem"
         style="stroke:#000000;stroke-width:0.36000001;stroke-linecap:round;stroke-linejoin:bevel" />
      <polyline
         id="polyline3040"
         points="235.481,59.2581 235.481,50.2072"
         class="Stem"
         style="stroke:#000000;stroke-width:0.36000001;stroke-linecap:round;stroke-linejoin:bevel" />
      <polyline
         id="polyline3046"
         points="214.502,60.6244 214.502,51.5735"
         class="Stem"
         style="stroke:#000000;stroke-width:0.36000001;stroke-linecap:round;stroke-linejoin:bevel" />
      <polyline
         id="polyline3048"
         points="200.222,59.2581 200.222,45.4252"
         class="Stem"
         style="stroke:#000000;stroke-width:0.36000001;stroke-linecap:round;stroke-linejoin:bevel" />
      <polyline
         id="polyline3052"
         points="191.959,52.4266 191.959,45.4252"
         class="Stem"
         style="stroke:#000000;stroke-width:0.36000001;stroke-linecap:round;stroke-linejoin:bevel" />
      <polyline
         id="polyline3054"
         points="183.696,55.1592 183.696,45.4252"
         class="Stem"
         style="stroke:#000000;stroke-width:0.36000001;stroke-linecap:round;stroke-linejoin:bevel" />
      <path
         id="path4468"
         d="m 4.39063,-2.75 c 0.625,0 1.15625,0.16146 1.59375,0.48437 0.39583,0.35417 0.59375,0.79688 0.59375,1.32813 0,0.8958333 -0.45834,1.734375 -1.375,2.51563 C 4.26563,2.35938 3.26042,2.75 2.1875,2.75 1.5625,2.75 1.03646,2.58854 0.609375,2.26563 0.203125,1.91146 0,1.46875 0,0.9375 0,0.0416667 0.46875,-0.796875 1.40625,-1.57813 2.32292,-2.35938 3.31771,-2.75 4.39063,-2.75"
         transform="matrix(0.54652,0,0,0.54652,314.493,54.3061)"
         class="Note"
         inkscape:connector-curvature="0" />
      <path
         id="path4470"
         d="m 4.39063,-2.75 c 0.625,0 1.15625,0.16146 1.59375,0.48437 0.39583,0.35417 0.59375,0.79688 0.59375,1.32813 0,0.8958333 -0.45834,1.734375 -1.375,2.51563 C 4.26563,2.35938 3.26042,2.75 2.1875,2.75 1.5625,2.75 1.03646,2.58854 0.609375,2.26563 0.203125,1.91146 0,1.46875 0,0.9375 0,0.0416667 0.46875,-0.796875 1.40625,-1.57813 2.32292,-2.35938 3.31771,-2.75 4.39063,-2.75"
         transform="matrix(0.54652,0,0,0.54652,308.618,55.6724)"
         class="Note"
         inkscape:connector-curvature="0" />
      <path
         id="path4474"
         d="m 4.39063,-2.75 c 0.625,0 1.15625,0.16146 1.59375,0.48437 0.39583,0.35417 0.59375,0.79688 0.59375,1.32813 0,0.8958333 -0.45834,1.734375 -1.375,2.51563 C 4.26563,2.35938 3.26042,2.75 2.1875,2.75 1.5625,2.75 1.03646,2.58854 0.609375,2.26563 0.203125,1.91146 0,1.46875 0,0.9375 0,0.0416667 0.46875,-0.796875 1.40625,-1.57813 2.32292,-2.35938 3.31771,-2.75 4.39063,-2.75"
         transform="matrix(0.54652,0,0,0.54652,299.218,57.0387)"
         class="Note"
         inkscape:connector-curvature="0" />
      <path
         id="path4476"
         d="m 4.39063,-2.75 c 0.625,0 1.15625,0.16146 1.59375,0.48437 0.39583,0.35417 0.59375,0.79688 0.59375,1.32813 0,0.8958333 -0.45834,1.734375 -1.375,2.51563 C 4.26563,2.35938 3.26042,2.75 2.1875,2.75 1.5625,2.75 1.03646,2.58854 0.609375,2.26563 0.203125,1.91146 0,1.46875 0,0.9375 0,0.0416667 0.46875,-0.796875 1.40625,-1.57813 2.32292,-2.35938 3.31771,-2.75 4.39063,-2.75"
         transform="matrix(0.54652,0,0,0.54652,289.172,58.405)"
         class="Note"
         inkscape:connector-curvature="0" />
      <path
         id="path4480"
         d="m 4.39063,-2.75 c 0.625,0 1.15625,0.16146 1.59375,0.48437 0.39583,0.35417 0.59375,0.79688 0.59375,1.32813 0,0.8958333 -0.45834,1.734375 -1.375,2.51563 C 4.26563,2.35938 3.26042,2.75 2.1875,2.75 1.5625,2.75 1.03646,2.58854 0.609375,2.26563 0.203125,1.91146 0,1.46875 0,0.9375 0,0.0416667 0.46875,-0.796875 1.40625,-1.57813 2.32292,-2.35938 3.31771,-2.75 4.39063,-2.75"
         transform="matrix(0.54652,0,0,0.54652,283.344,57.0387)"
         class="Note"
         inkscape:connector-curvature="0" />
      <path
         id="path4484"
         d="m 4.39063,-2.75 c 0.625,0 1.15625,0.16146 1.59375,0.48437 0.39583,0.35417 0.59375,0.79688 0.59375,1.32813 0,0.8958333 -0.45834,1.734375 -1.375,2.51563 C 4.26563,2.35938 3.26042,2.75 2.1875,2.75 1.5625,2.75 1.03646,2.58854 0.609375,2.26563 0.203125,1.91146 0,1.46875 0,0.9375 0,0.0416667 0.46875,-0.796875 1.40625,-1.57813 2.32292,-2.35938 3.31771,-2.75 4.39063,-2.75"
         transform="matrix(0.54652,0,0,0.54652,274.02,55.6724)"
         class="Note"
         inkscape:connector-curvature="0" />
      <path
         id="path4486"
         d="m 4.39063,-2.75 c 0.625,0 1.15625,0.16146 1.59375,0.48437 0.39583,0.35417 0.59375,0.79688 0.59375,1.32813 0,0.8958333 -0.45834,1.734375 -1.375,2.51563 C 4.26563,2.35938 3.26042,2.75 2.1875,2.75 1.5625,2.75 1.03646,2.58854 0.609375,2.26563 0.203125,1.91146 0,1.46875 0,0.9375 0,0.0416667 0.46875,-0.796875 1.40625,-1.57813 2.32292,-2.35938 3.31771,-2.75 4.39063,-2.75"
         transform="matrix(0.54652,0,0,0.54652,268.192,57.0387)"
         class="Note"
         inkscape:connector-curvature="0" />
      <path
         id="path4490"
         d="m 4.39063,-2.75 c 0.625,0 1.15625,0.16146 1.59375,0.48437 0.39583,0.35417 0.59375,0.79688 0.59375,1.32813 0,0.8958333 -0.45834,1.734375 -1.375,2.51563 C 4.26563,2.35938 3.26042,2.75 2.1875,2.75 1.5625,2.75 1.03646,2.58854 0.609375,2.26563 0.203125,1.91146 0,1.46875 0,0.9375 0,0.0416667 0.46875,-0.796875 1.40625,-1.57813 2.32292,-2.35938 3.31771,-2.75 4.39063,-2.75"
         transform="matrix(0.54652,0,0,0.54652,262.365,58.405)"
         class="Note"
         inkscape:connector-curvature="0" />
      <path
         id="path4500"
         d="m 4.39063,-2.75 c 0.625,0 1.15625,0.16146 1.59375,0.48437 0.39583,0.35417 0.59375,0.79688 0.59375,1.32813 0,0.8958333 -0.45834,1.734375 -1.375,2.51563 C 4.26563,2.35938 3.26042,2.75 2.1875,2.75 1.5625,2.75 1.03646,2.58854 0.609375,2.26563 0.203125,1.91146 0,1.46875 0,0.9375 0,0.0416667 0.46875,-0.796875 1.40625,-1.57813 2.32292,-2.35938 3.31771,-2.75 4.39063,-2.75"
         transform="matrix(0.54652,0,0,0.54652,232.061,59.7713)"
         class="Note"
         inkscape:connector-curvature="0" />
      <path
         id="path4506"
         d="m 4.39063,-2.75 c 0.625,0 1.15625,0.16146 1.59375,0.48437 0.39583,0.35417 0.59375,0.79688 0.59375,1.32813 0,0.8958333 -0.45834,1.734375 -1.375,2.51563 C 4.26563,2.35938 3.26042,2.75 2.1875,2.75 1.5625,2.75 1.03646,2.58854 0.609375,2.26563 0.203125,1.91146 0,1.46875 0,0.9375 0,0.0416667 0.46875,-0.796875 1.40625,-1.57813 2.32292,-2.35938 3.31771,-2.75 4.39063,-2.75"
         transform="matrix(0.54652,0,0,0.54652,211.082,61.1376)"
         class="Note"
         inkscape:connector-curvature="0" />
      <path
         id="path4508"
         d="m 4.39063,-2.75 c 0.625,0 1.15625,0.16146 1.59375,0.48437 0.39583,0.35417 0.59375,0.79688 0.59375,1.32813 0,0.8958333 -0.45834,1.734375 -1.375,2.51563 C 4.26563,2.35938 3.26042,2.75 2.1875,2.75 1.5625,2.75 1.03646,2.58854 0.609375,2.26563 0.203125,1.91146 0,1.46875 0,0.9375 0,0.0416667 0.46875,-0.796875 1.40625,-1.57813 2.32292,-2.35938 3.31771,-2.75 4.39063,-2.75"
         transform="matrix(0.54652,0,0,0.54652,196.802,59.7713)"
         class="Note"
         inkscape:connector-curvature="0" />
      <path
         id="path4512"
         d="m 4.39063,-2.75 c 0.625,0 1.15625,0.16146 1.59375,0.48437 0.39583,0.35417 0.59375,0.79688 0.59375,1.32813 0,0.8958333 -0.45834,1.734375 -1.375,2.51563 C 4.26563,2.35938 3.26042,2.75 2.1875,2.75 1.5625,2.75 1.03646,2.58854 0.609375,2.26563 0.203125,1.91146 0,1.46875 0,0.9375 0,0.0416667 0.46875,-0.796875 1.40625,-1.57813 2.32292,-2.35938 3.31771,-2.75 4.39063,-2.75"
         transform="matrix(0.54652,0,0,0.54652,188.539,52.9398)"
         class="Note"
         inkscape:connector-curvature="0" />
      <path
         id="path4514"
         d="m 4.39063,-2.75 c 0.625,0 1.15625,0.16146 1.59375,0.48437 0.39583,0.35417 0.59375,0.79688 0.59375,1.32813 0,0.8958333 -0.45834,1.734375 -1.375,2.51563 C 4.26563,2.35938 3.26042,2.75 2.1875,2.75 1.5625,2.75 1.03646,2.58854 0.609375,2.26563 0.203125,1.91146 0,1.46875 0,0.9375 0,0.0416667 0.46875,-0.796875 1.40625,-1.57813 2.32292,-2.35938 3.31771,-2.75 4.39063,-2.75"
         transform="matrix(0.54652,0,0,0.54652,180.276,55.6724)"
         class="Note"
         inkscape:connector-curvature="0" />
      <path
         id="path4606"
         d="m 7.34375,-5.125 c 0,0 0.04167,0 0.125,0 0.05208,-0.01042 0.09375,-0.01563 0.125,-0.01563 1.45833,0 2.65625,0.51563 3.59375,1.54688 0.9375,1.01042 1.4063,2.19271 1.4063,3.546875 0,1.687505 -0.6928,3.057295 -2.0782,4.109375 C 10.151,4.35417 9.67188,4.58854 9.07813,4.76563 9.15104,5.60938 9.1875,6.29167 9.1875,6.8125 c 0,0.10417 -0.01562,0.48438 -0.04687,1.14063 -0.05209,1.20833 -0.46875,2.25517 -1.25,3.14067 -0.75,0.875 -1.6875,1.3125 -2.8125,1.3125 -1.05209,0 -1.94792,-0.3698 -2.6875,-1.1094 -0.75,-0.7604 -1.125,-1.6719 -1.125,-2.7344 C 1.26563,8 1.48438,7.52083 1.92188,7.125 2.35938,6.73958 2.86979,6.54688 3.45313,6.54688 3.97396,6.54688 4.41146,6.75 4.76563,7.15625 5.13021,7.53125 5.3125,8 5.3125,8.5625 c 0,0.5 -0.18229,0.93229 -0.54687,1.29688 -0.36459,0.36462 -0.80209,0.54692 -1.3125,0.54692 -0.20834,0 -0.40625,-0.0365 -0.59375,-0.1094 0.57291,0.8437 1.33333,1.2656 2.28125,1.2656 0.89583,0 1.6302,-0.3646 2.20312,-1.0937 C 7.94792,9.71875 8.27604,8.83854 8.32813,7.82813 8.34896,7.20313 8.35938,6.84896 8.35938,6.76563 8.35938,6.03646 8.33333,5.4375 8.28125,4.96875 7.63542,5.07292 7.05729,5.125 6.54688,5.125 4.73438,5.125 3.19271,4.40625 1.92188,2.96875 0.671875,1.52083 0.046875,-0.197917 0.046875,-2.1875 c 0,-0.41667 0.0364583,-0.83854 0.109375,-1.26563 0.083333,-0.35416 0.182292,-0.73958 0.296875,-1.15625 0.0625,-0.23958 0.239583,-0.61979 0.53125,-1.14062 0.104165,-0.15625 0.221355,-0.35156 0.351565,-0.58594 0.13021,-0.23437 0.22135,-0.38802 0.27344,-0.46094 0.125,-0.26041 0.375,-0.61458 0.75,-1.0625 C 2.46354,-7.97396 2.57292,-8.10156 2.6875,-8.24219 2.80208,-8.38281 2.89844,-8.5 2.97656,-8.59375 3.05469,-8.6875 3.11198,-8.76042 3.14844,-8.8125 3.1849,-8.86458 3.47917,-9.20833 4.03125,-9.84375 c 0.125,-0.13542 0.25,-0.27605 0.375,-0.42185 0.125,-0.1459 0.22656,-0.263 0.30469,-0.3516 0.07812,-0.0885 0.13802,-0.1484 0.17969,-0.1797 C 4.42188,-12.349 4.125,-13.5885 4,-14.5156 c -0.08333,-0.7396 -0.125,-1.7552 -0.125,-3.0469 0,-1.1354 0.26042,-2.1979 0.78125,-3.1875 0.5,-1.0208 1.20833,-1.8594 2.125,-2.5156 0.0625,-0.0417 0.125,-0.0625 0.1875,-0.0625 0.09375,0 0.16146,0.0208 0.20313,0.0625 0.69791,0.8437 1.30208,1.9427 1.8125,3.2968 0.52083,1.3542 0.78125,2.5886 0.78125,3.7032 0,1.25 -0.29688,2.4218 -0.89063,3.5156 -0.67708,1.1562 -1.55208,2.3542 -2.625,3.59375 0.27083,0.85417 0.63542,2.19792 1.09375,4.03125 M 9,3.96875 c 0.67708,-0.25 1.2083,-0.67187 1.5938,-1.26562 0.4166,-0.57292 0.625,-1.21875 0.625,-1.937505 0,-0.927083 -0.3125,-1.75 -0.9375,-2.468755 C 9.63542,-2.44271 8.81771,-2.85938 7.82813,-2.95313 8.39063,-0.203125 8.78125,2.10417 9,3.96875 M 1.45313,-0.546875 c 0,1.291667 0.52083,2.427085 1.5625,3.406255 1.0625,0.94791 2.26041,1.42187 3.59375,1.42187 0.54166,0 1.07291,-0.04167 1.59375,-0.125 -0.20834,-1.97917 -0.6198,-4.348958 -1.23438,-7.10938 -0.73958,0.08334 -1.32812,0.34375 -1.76562,0.78125 -0.4375,0.45834 -0.65625,0.97396 -0.65625,1.54688 0,0.989583 0.53125,1.79167 1.59375,2.40625 0.08333,0.09375 0.125,0.19271 0.125,0.29688 0,0.10416 -0.04167,0.19791 -0.125,0.28125 C 6.05729,2.45313 5.95833,2.5 5.84375,2.5 5.83333,2.5 5.77604,2.48958 5.67188,2.46875 4.92188,2.0625 4.34896,1.54167 3.95313,0.90625 3.56771,0.21875 3.375,-0.46875 3.375,-1.15625 c 0,-0.89583 0.28125,-1.70833 0.84375,-2.4375 C 4.80208,-4.32292 5.5625,-4.79167 6.5,-5 6.13542,-6.45833 5.83854,-7.59896 5.60938,-8.42188 c -0.20834,0.23959 -0.45834,0.52344 -0.75,0.85157 -0.29167,0.32812 -0.46355,0.52864 -0.51563,0.60156 -0.46875,0.60417 -0.82812,1.07812 -1.07812,1.42187 -0.44792,0.61459 -0.77605,1.14063 -0.98438,1.57813 -0.21875,0.5 -0.41146,1.04167 -0.57812,1.625 -0.16667,0.5625 -0.25,1.16146 -0.25,1.796875 M 7.96875,-20.4063 c -0.97917,0.4792 -1.74479,1.1667 -2.29687,2.0625 -0.57292,0.9271 -0.85938,1.9219 -0.85938,2.9844 0,0.9375 0.23438,2.2031 0.70313,3.7969 0.9375,-1.1354 1.64062,-2.1823 2.10937,-3.1406 0.48958,-1.0209 0.73438,-2.0834 0.73438,-3.1875 0,-0.8334 -0.13021,-1.6719 -0.39063,-2.5157"
         transform="matrix(0.54652,0,0,0.54652,49.1089,55.6724)"
         class="Clef"
         inkscape:connector-curvature="0" />
      <path
         id="path4700"
         d="M 0.921875,-0.828125 V 0.71875 C 0.921875,1.27083 0.947917,1.70833 1,2.03125 1.42708,1.66667 1.73438,1.39583 1.92188,1.21875 2.13021,1.01042 2.33854,0.721354 2.54688,0.351563 2.75521,-0.0182292 2.85938,-0.385417 2.85938,-0.75 2.85938,-1.11458 2.78125,-1.42708 2.625,-1.6875 2.46875,-1.94792 2.26042,-2.07813 2,-2.07813 c -0.3125,0 -0.57292,0.1198 -0.78125,0.35938 -0.19792,0.26042 -0.296875,0.55729 -0.296875,0.890625 M 0.09375,2.75 l -0.25,-11.89063 c 0.1875,-0.10416 0.372396,-0.15625 0.554688,-0.15625 0.182291,0 0.361979,0.05209 0.539062,0.15625 L 0.78125,-2.25 C 1.3125,-2.70833 1.92708,-2.9375 2.625,-2.9375 c 0.5,0 0.91927,0.20833 1.25781,0.625 0.33854,0.41667 0.50782,0.89583 0.50782,1.4375 0,0.333333 -0.10938,0.692708 -0.32813,1.078125 C 3.85417,0.546875 3.63542,0.817708 3.40625,1.01563 3.27083,1.11979 2.9375,1.38021 2.40625,1.79688 2.25,1.91146 2.0651,2.04688 1.85156,2.20313 1.63802,2.35938 1.50521,2.45833 1.45313,2.5 1.35938,2.55208 1.27083,2.65625 1.1875,2.8125 1.10417,2.94792 1,3.05729 0.875,3.14063 0.791667,3.22396 0.684896,3.26563 0.554688,3.26563 0.424479,3.26563 0.317708,3.21875 0.234375,3.125 0.140625,3.03125 0.09375,2.90625 0.09375,2.75"
         transform="matrix(0.54652,0,0,0.54652,60.3091,48.8409)"
         class="KeySig"
         inkscape:connector-curvature="0" />
      <path
         id="path4702"
         d="M 0.921875,-0.828125 V 0.71875 C 0.921875,1.27083 0.947917,1.70833 1,2.03125 1.42708,1.66667 1.73438,1.39583 1.92188,1.21875 2.13021,1.01042 2.33854,0.721354 2.54688,0.351563 2.75521,-0.0182292 2.85938,-0.385417 2.85938,-0.75 2.85938,-1.11458 2.78125,-1.42708 2.625,-1.6875 2.46875,-1.94792 2.26042,-2.07813 2,-2.07813 c -0.3125,0 -0.57292,0.1198 -0.78125,0.35938 -0.19792,0.26042 -0.296875,0.55729 -0.296875,0.890625 M 0.09375,2.75 l -0.25,-11.89063 c 0.1875,-0.10416 0.372396,-0.15625 0.554688,-0.15625 0.182291,0 0.361979,0.05209 0.539062,0.15625 L 0.78125,-2.25 C 1.3125,-2.70833 1.92708,-2.9375 2.625,-2.9375 c 0.5,0 0.91927,0.20833 1.25781,0.625 0.33854,0.41667 0.50782,0.89583 0.50782,1.4375 0,0.333333 -0.10938,0.692708 -0.32813,1.078125 C 3.85417,0.546875 3.63542,0.817708 3.40625,1.01563 3.27083,1.11979 2.9375,1.38021 2.40625,1.79688 2.25,1.91146 2.0651,2.04688 1.85156,2.20313 1.63802,2.35938 1.50521,2.45833 1.45313,2.5 1.35938,2.55208 1.27083,2.65625 1.1875,2.8125 1.10417,2.94792 1,3.05729 0.875,3.14063 0.791667,3.22396 0.684896,3.26563 0.554688,3.26563 0.424479,3.26563 0.317708,3.21875 0.234375,3.125 0.140625,3.03125 0.09375,2.90625 0.09375,2.75"
         transform="matrix(0.54652,0,0,0.54652,57.5765,52.9398)"
         class="KeySig"
         inkscape:connector-curvature="0" />
      <path
         id="path4716"
         d="m 4.5,-4.75 c 0.38542,0 0.71615,-0.04427 0.99219,-0.13281 0.27604,-0.08854 0.45052,-0.13282 0.52344,-0.13282 0.09375,0 0.16666,0.02605 0.21875,0.07813 0.04166,0.03125 0.0677,0.07292 0.07812,0.125 0,0.03125 -0.01562,0.07292 -0.04687,0.125 L 0.59375,1.92188 h 3.32813 v -2.625005 c 0,-0.166667 0.04687,-0.312505 0.14062,-0.437505 0.15625,-0.125 0.28646,-0.20312 0.39063,-0.23437 0.16666,-0.07292 0.375,-0.25521 0.625,-0.54688 0.20833,-0.22916 0.45833,-0.63541 0.75,-1.21875 0.03125,-0.08333 0.08854,-0.125 0.17187,-0.125 0.15625,0 0.24479,0.09375 0.26563,0.28125 v 4.90626 h 1.4375 c 0.17708,0 0.28125,0.09375 0.3125,0.28125 C 8.01563,2.40104 7.91146,2.5 7.70313,2.5 h -1.4375 v 0.15625 c 0,0.52083 0.1302,0.96354 0.39062,1.32813 0.30208,0.36458 0.65625,0.54687 1.0625,0.54687 0.15625,0 0.23438,0.07813 0.23438,0.23438 C 7.95313,4.92188 7.875,5 7.71875,5 7.44792,5 7.00521,4.96354 6.39063,4.89063 5.82813,4.79688 5.39063,4.75 5.07813,4.75 4.75521,4.75 4.31771,4.79688 3.76563,4.89063 3.18229,4.96354 2.75,5 2.46875,5 2.3125,5 2.23438,4.92188 2.23438,4.76563 c 0,-0.15625 0.07812,-0.23438 0.23437,-0.23438 0.39583,0 0.74479,-0.18229 1.04688,-0.54687 C 3.78646,3.61979 3.92188,3.17708 3.92188,2.65625 V 2.5 H 0.59375 C 0.364583,2.5 0.208333,2.44792 0.125,2.34375 0.0104167,2.27083 -0.046875,2.16667 -0.046875,2.03125 -0.046875,1.98958 0.0520833,1.85417 0.25,1.625 0.479167,1.36458 0.713542,1.04688 0.953125,0.671875 1.24479,0.223958 1.52083,-0.234375 1.78125,-0.703125 2.0625,-1.23438 2.29167,-1.84896 2.46875,-2.54688 2.65625,-3.24479 2.75,-3.95833 2.75,-4.6875 2.75,-4.89583 2.84375,-5 3.03125,-5 c 0.04167,0 0.125,0.02083 0.25,0.0625 0.04167,0.01042 0.125,0.02865 0.25,0.05469 0.125,0.02604 0.22396,0.04948 0.29688,0.07031 C 4.06771,-4.77083 4.29167,-4.75 4.5,-4.75"
         transform="matrix(0.54652,0,0,0.54652,64.1262,50.2072)"
         class="TimeSig"
         inkscape:connector-curvature="0" />
      <path
         id="path4718"
         d="m 4.5,-4.75 c 0.38542,0 0.71615,-0.04427 0.99219,-0.13281 0.27604,-0.08854 0.45052,-0.13282 0.52344,-0.13282 0.09375,0 0.16666,0.02605 0.21875,0.07813 0.04166,0.03125 0.0677,0.07292 0.07812,0.125 0,0.03125 -0.01562,0.07292 -0.04687,0.125 L 0.59375,1.92188 h 3.32813 v -2.625005 c 0,-0.166667 0.04687,-0.312505 0.14062,-0.437505 0.15625,-0.125 0.28646,-0.20312 0.39063,-0.23437 0.16666,-0.07292 0.375,-0.25521 0.625,-0.54688 0.20833,-0.22916 0.45833,-0.63541 0.75,-1.21875 0.03125,-0.08333 0.08854,-0.125 0.17187,-0.125 0.15625,0 0.24479,0.09375 0.26563,0.28125 v 4.90626 h 1.4375 c 0.17708,0 0.28125,0.09375 0.3125,0.28125 C 8.01563,2.40104 7.91146,2.5 7.70313,2.5 h -1.4375 v 0.15625 c 0,0.52083 0.1302,0.96354 0.39062,1.32813 0.30208,0.36458 0.65625,0.54687 1.0625,0.54687 0.15625,0 0.23438,0.07813 0.23438,0.23438 C 7.95313,4.92188 7.875,5 7.71875,5 7.44792,5 7.00521,4.96354 6.39063,4.89063 5.82813,4.79688 5.39063,4.75 5.07813,4.75 4.75521,4.75 4.31771,4.79688 3.76563,4.89063 3.18229,4.96354 2.75,5 2.46875,5 2.3125,5 2.23438,4.92188 2.23438,4.76563 c 0,-0.15625 0.07812,-0.23438 0.23437,-0.23438 0.39583,0 0.74479,-0.18229 1.04688,-0.54687 C 3.78646,3.61979 3.92188,3.17708 3.92188,2.65625 V 2.5 H 0.59375 C 0.364583,2.5 0.208333,2.44792 0.125,2.34375 0.0104167,2.27083 -0.046875,2.16667 -0.046875,2.03125 -0.046875,1.98958 0.0520833,1.85417 0.25,1.625 0.479167,1.36458 0.713542,1.04688 0.953125,0.671875 1.24479,0.223958 1.52083,-0.234375 1.78125,-0.703125 2.0625,-1.23438 2.29167,-1.84896 2.46875,-2.54688 2.65625,-3.24479 2.75,-3.95833 2.75,-4.6875 2.75,-4.89583 2.84375,-5 3.03125,-5 c 0.04167,0 0.125,0.02083 0.25,0.0625 0.04167,0.01042 0.125,0.02865 0.25,0.05469 0.125,0.02604 0.22396,0.04948 0.29688,0.07031 C 4.06771,-4.77083 4.29167,-4.75 4.5,-4.75"
         transform="matrix(0.54652,0,0,0.54652,64.1262,55.6724)"
         class="TimeSig"
         inkscape:connector-curvature="0" />
      <path
         id="path4886"
         d="m 1.40625,-4.10938 c 0.375,0 0.66146,0.10417 0.85938,0.3125 0.19791,0.23959 0.30208,0.46355 0.3125,0.67188 0.03125,0.19792 0.09895,0.41667 0.20312,0.65625 0.11458,0.20833 0.26042,0.3125 0.4375,0.3125 0.14583,0 0.36458,-0.16146 0.65625,-0.48438 0.26042,-0.28125 0.44792,-0.53645 0.5625,-0.76562 0.0625,-0.125 0.15104,-0.1875 0.26563,-0.1875 H 4.73438 C 4.85938,-3.58333 4.94792,-3.52083 5,-3.40625 L 2.54688,5 C 2.41146,5.13542 2.22656,5.20313 1.99219,5.20313 1.75781,5.20313 1.57813,5.13542 1.45313,5 l 2.34375,-6.53125 c -0.83334,0.30208 -1.53646,0.45312 -2.10938,0.45312 -0.46875,0 -0.875,-0.15104 -1.21875,-0.45312 -0.354167,-0.28125 -0.53125,-0.65625 -0.53125,-1.125 0,-0.40625 0.1458333,-0.74479 0.4375,-1.01563 0.28125,-0.29166 0.625,-0.4375 1.03125,-0.4375"
         transform="matrix(0.54652,0,0,0.54652,253.04,52.9398)"
         class="Rest"
         inkscape:connector-curvature="0" />
      <path
         id="path4894"
         d="m 1.40625,-4.10938 c 0.375,0 0.66146,0.10417 0.85938,0.3125 0.19791,0.23959 0.30208,0.46355 0.3125,0.67188 0.03125,0.19792 0.09895,0.41667 0.20312,0.65625 0.11458,0.20833 0.26042,0.3125 0.4375,0.3125 0.14583,0 0.36458,-0.16146 0.65625,-0.48438 0.26042,-0.28125 0.44792,-0.53645 0.5625,-0.76562 0.0625,-0.125 0.15104,-0.1875 0.26563,-0.1875 H 4.73438 C 4.85938,-3.58333 4.94792,-3.52083 5,-3.40625 L 2.54688,5 C 2.41146,5.13542 2.22656,5.20313 1.99219,5.20313 1.75781,5.20313 1.57813,5.13542 1.45313,5 l 2.34375,-6.53125 c -0.83334,0.30208 -1.53646,0.45312 -2.10938,0.45312 -0.46875,0 -0.875,-0.15104 -1.21875,-0.45312 -0.354167,-0.28125 -0.53125,-0.65625 -0.53125,-1.125 0,-0.40625 0.1458333,-0.74479 0.4375,-1.01563 0.28125,-0.29166 0.625,-0.4375 1.03125,-0.4375"
         transform="matrix(0.54652,0,0,0.54652,172.013,52.9398)"
         class="Rest"
         inkscape:connector-curvature="0" />
      <path
         id="path4902"
         d="M 7.3125,0 H 0.203125 C 0.0677083,0 0,-0.0677083 0,-0.203125 V -2.9375 C 0,-3.0625 0.0677083,-3.125 0.203125,-3.125 H 7.3125 c 0.125,0 0.1875,0.0625 0.1875,0.1875 v 2.734375 C 7.5,-0.0677083 7.4375,0 7.3125,0"
         transform="matrix(0.54652,0,0,0.54652,134.828,52.9398)"
         class="Rest"
         inkscape:connector-curvature="0" />
      <path
         id="path4910"
         d="M 7.3125,3.125 H 0.203125 C 0.0677083,3.125 0,3.0625 0,2.9375 V 0.203125 C 0,0.0677083 0.0677083,0 0.203125,0 H 7.3125 C 7.4375,0 7.5,0.0677083 7.5,0.203125 V 2.9375 C 7.5,3.0625 7.4375,3.125 7.3125,3.125"
         transform="matrix(0.54652,0,0,0.54652,97.742,50.2072)"
         class="Rest"
         inkscape:connector-curvature="0" />
      <path
         id="path5628"
         d="M 302.461,46.8392 318.09,44.742 v 1.3663 l -15.629,2.0972 v -1.3663"
         class="Beam"
         inkscape:connector-curvature="0"
         style="fill-rule:evenodd" />
      <path
         id="path5630"
         d="m 311.86,47.6274 6.23,-0.8359 v 1.3663 l -6.23,0.8359 v -1.3663"
         class="Beam"
         inkscape:connector-curvature="0"
         style="fill-rule:evenodd" />
      <path
         id="path5632"
         d="m 277.262,46.7274 15.507,2.7967 v 1.3663 l -15.507,-2.7967 v -1.3663"
         class="Beam"
         inkscape:connector-curvature="0"
         style="fill-rule:evenodd" />
      <path
         id="path5634"
         d="m 286.587,50.4585 6.182,1.115 v 1.3663 l -6.182,-1.115 v -1.3663"
         class="Beam"
         inkscape:connector-curvature="0"
         style="fill-rule:evenodd" />
      <path
         id="path5636"
         d="m 265.607,47.5163 6.183,-0.7248 v 1.3663 l -6.183,0.7248 v -1.3663"
         class="Beam"
         inkscape:connector-curvature="0"
         style="fill-rule:evenodd" />
      <path
         id="path5638"
         d="m 265.607,49.5657 6.183,-0.7248 v 1.3663 l -6.183,0.7248 v -1.3663"
         class="Beam"
         inkscape:connector-curvature="0"
         style="fill-rule:evenodd" />
      <path
         id="path5650"
         d="M 183.518,44.742 H 200.4 v 1.3663 H 183.518 V 44.742"
         class="Beam"
         inkscape:connector-curvature="0"
         style="fill-rule:evenodd" />
      <polyline
         id="polyline6527"
         points="131.276,76.1669 131.276,87.0973"
         class="BarLine"
         transform="translate(-84.3532,-28.6923)"
         style="stroke:#000000;stroke-width:0.44;stroke-linejoin:bevel" />
    </g>
  </g>
</svg>
